<?xml version="1.0" encoding="UTF-8"?>
<svg width="512" height="512" viewBox="0 0 512 512" xmlns="http://www.w3.org/2000/svg">
  <!-- 外圈渐变背景 -->
  <defs>
    <linearGradient id="gradient" x1="0%" y1="0%" x2="100%" y2="100%">
      <stop offset="0%" style="stop-color:#FF0050;stop-opacity:1" />
      <stop offset="100%" style="stop-color:#00F2EA;stop-opacity:1" />
    </linearGradient>
    <filter id="shadow" x="-20%" y="-20%" width="140%" height="140%">
      <feGaussianBlur in="SourceAlpha" stdDeviation="5" />
      <feOffset dx="0" dy="2" result="offsetblur" />
      <feComponentTransfer>
        <feFuncA type="linear" slope="0.3" />
      </feComponentTransfer>
      <feMerge>
        <feMergeNode />
        <feMergeNode in="SourceGraphic" />
      </feMerge>
    </filter>
  </defs>

  <!-- 外圈 -->
  <circle cx="256" cy="256" r="240" fill="url(#gradient)" filter="url(#shadow)" />

  <!-- 内圈 -->
  <circle cx="256" cy="256" r="200" fill="white" />

  <!-- 游戏控制器轮廓 -->
  <path d="M256 120 C 200 120, 160 160, 160 216 C 160 272, 200 312, 256 312 C 312 312, 352 272, 352 216 C 352 160, 312 120, 256 120 Z" 
        fill="none" stroke="#333" stroke-width="12" />

  <!-- 方向键 -->
  <path d="M200 216 L 240 216 L 240 176 L 200 176 Z" fill="#333" />
  <path d="M272 216 L 312 216 L 312 176 L 272 176 Z" fill="#333" />
  <path d="M240 248 L 240 288 L 200 288 L 200 248 Z" fill="#333" />
  <path d="M312 248 L 312 288 L 272 288 L 272 248 Z" fill="#333" />

  <!-- TT 字母 -->
  <text x="256" y="256" font-family="Arial" font-size="120" font-weight="bold" 
        text-anchor="middle" dominant-baseline="middle" fill="#FF0050">TT</text>
</svg> 